<svg width="32" height="32" viewBox="0 0 32 32" fill="none" xmlns="http://www.w3.org/2000/svg">
<g id="Social Icons" clip-path="url(#clip0_148_430)">
<path id="Vector" d="M16 2.88166C20.2749 2.88166 20.7811 2.90041 22.4623 2.97541C24.0248 3.04415 24.8685 3.30665 25.431 3.52539C26.1747 3.81288 26.7122 4.16287 27.2684 4.71911C27.8309 5.28159 28.1747 5.81283 28.4621 6.55656C28.6809 7.11904 28.9434 7.96902 29.0121 9.52523C29.0871 11.2127 29.1059 11.7189 29.1059 15.9875C29.1059 20.2624 29.0871 20.7687 29.0121 22.4499C28.9434 24.0123 28.6809 24.8561 28.4621 25.4185C28.1747 26.1623 27.8247 26.6998 27.2684 27.256C26.7059 27.8185 26.1747 28.1622 25.431 28.4497C24.8685 28.6685 24.0185 28.9309 22.4623 28.9997C20.7749 29.0747 20.2686 29.0934 16 29.0934C11.7251 29.0934 11.2189 29.0747 9.53767 28.9997C7.97521 28.9309 7.13148 28.6685 6.569 28.4497C5.82527 28.1622 5.28778 27.8122 4.73155 27.256C4.16906 26.6935 3.82532 26.1623 3.53783 25.4185C3.31909 24.8561 3.05659 24.0061 2.98785 22.4499C2.91285 20.7624 2.8941 20.2562 2.8941 15.9875C2.8941 11.7127 2.91285 11.2064 2.98785 9.52523C3.05659 7.96277 3.31909 7.11904 3.53783 6.55656C3.82532 5.81283 4.17531 5.27534 4.73155 4.71911C5.29403 4.15662 5.82527 3.81288 6.569 3.52539C7.13148 3.30665 7.98146 3.04415 9.53767 2.97541C11.2189 2.90041 11.7251 2.88166 16 2.88166ZM16 0.000488281C11.6564 0.000488281 11.1126 0.0192378 9.40642 0.0942357C7.70647 0.169234 6.53775 0.444226 5.52528 0.837965C4.46905 1.25045 3.57533 1.79419 2.68785 2.68791C1.79413 3.57539 1.25039 4.46912 0.837904 5.51909C0.444165 6.53781 0.169173 7.70028 0.0941747 9.40023C0.0191767 11.1127 0.000427246 11.6564 0.000427246 16C0.000427246 20.3437 0.0191767 20.8874 0.0941747 22.5936C0.169173 24.2936 0.444165 25.4623 0.837904 26.4748C1.25039 27.531 1.79413 28.4247 2.68785 29.3122C3.57533 30.1997 4.46905 30.7496 5.51903 31.1559C6.53775 31.5496 7.70022 31.8246 9.40017 31.8996C11.1064 31.9746 11.6501 31.9934 15.9937 31.9934C20.3374 31.9934 20.8811 31.9746 22.5873 31.8996C24.2873 31.8246 25.456 31.5496 26.4685 31.1559C27.5184 30.7496 28.4121 30.1997 29.2996 29.3122C30.1871 28.4247 30.7371 27.531 31.1433 26.481C31.5371 25.4623 31.8121 24.2998 31.8871 22.5999C31.962 20.8937 31.9808 20.3499 31.9808 16.0063C31.9808 11.6627 31.962 11.1189 31.8871 9.41273C31.8121 7.71278 31.5371 6.54406 31.1433 5.53159C30.7496 4.46912 30.2058 3.57539 29.3121 2.68791C28.4246 1.80044 27.5309 1.25045 26.481 0.844215C25.4622 0.450476 24.2998 0.175483 22.5998 0.100486C20.8874 0.0192378 20.3436 0.000488281 16 0.000488281Z" fill="url(#paint0_linear_148_430)"/>
<path id="Vector_2" d="M16 7.78149C11.4626 7.78149 7.78146 11.4626 7.78146 16C7.78146 20.5374 11.4626 24.2185 16 24.2185C20.5374 24.2185 24.2185 20.5374 24.2185 16C24.2185 11.4626 20.5374 7.78149 16 7.78149ZM16 21.3311C13.0563 21.3311 10.6689 18.9437 10.6689 16C10.6689 13.0563 13.0563 10.6689 16 10.6689C18.9437 10.6689 21.3311 13.0563 21.3311 16C21.3311 18.9437 18.9437 21.3311 16 21.3311Z" fill="url(#paint1_linear_148_430)"/>
<path id="Vector_3" d="M26.4622 7.45654C26.4622 8.51902 25.5997 9.37524 24.5435 9.37524C23.481 9.37524 22.6248 8.51277 22.6248 7.45654C22.6248 6.39407 23.4873 5.53784 24.5435 5.53784C25.5997 5.53784 26.4622 6.40032 26.4622 7.45654Z" fill="url(#paint2_linear_148_430)"/>
</g>
<defs>
<linearGradient id="paint0_linear_148_430" x1="0.000427246" y1="15.9969" x2="31.9808" y2="15.9969" gradientUnits="userSpaceOnUse">
<stop stop-color="#FFB580"/>
<stop offset="1" stop-color="#D389B0"/>
</linearGradient>
<linearGradient id="paint1_linear_148_430" x1="7.78146" y1="16" x2="24.2185" y2="16" gradientUnits="userSpaceOnUse">
<stop stop-color="#FFB580"/>
<stop offset="1" stop-color="#D389B0"/>
</linearGradient>
<linearGradient id="paint2_linear_148_430" x1="22.6248" y1="7.45654" x2="26.4622" y2="7.45654" gradientUnits="userSpaceOnUse">
<stop stop-color="#FFB580"/>
<stop offset="1" stop-color="#D389B0"/>
</linearGradient>
<clipPath id="clip0_148_430">
<rect width="31.9991" height="31.9991" fill="white" transform="translate(0.000427246 0.000488281)"/>
</clipPath>
</defs>
</svg>
