<svg width="32" height="32" viewBox="0 0 32 32" fill="none" xmlns="http://www.w3.org/2000/svg">
<g id="Social Icons">
<path id="Vector" d="M31.9995 15.5196C31.9995 24.4371 25.0129 31.0391 16 31.0391C14.3815 31.0391 12.8282 30.8254 11.3684 30.4241C11.0849 30.3454 10.7835 30.3678 10.5141 30.4862L7.33847 31.8884C6.50777 32.2551 5.57019 31.6644 5.54267 30.7569L5.45564 27.9103C5.44476 27.5596 5.28732 27.2319 5.02557 26.9983C1.91205 24.2144 0.000427246 20.1844 0.000427246 15.5196C0.000427246 6.60206 6.98711 0 16 0C25.0129 0 31.9995 6.60206 31.9995 15.5196Z" fill="url(#paint0_linear_148_433)"/>
<path id="Vector_2" d="M20.344 19.9872L25.9144 11.3783C26.4743 10.513 25.4369 9.50569 24.5883 10.0913L18.7735 14.102C18.5777 14.237 18.3191 14.2409 18.1195 14.1116L12.9581 10.7722C12.521 10.4893 11.938 10.6148 11.6557 11.0512L6.08474 19.6602C5.52476 20.5254 6.56216 21.5327 7.41077 20.9472L13.2269 16.9358C13.4227 16.8008 13.6812 16.7969 13.8809 16.9262L19.041 20.2649C19.4781 20.5478 20.0612 20.4224 20.344 19.9859V19.9872Z" fill="white"/>
</g>
<defs>
<linearGradient id="paint0_linear_148_433" x1="0.000427246" y1="15.9994" x2="31.9995" y2="15.9994" gradientUnits="userSpaceOnUse">
<stop stop-color="#FFB580"/>
<stop offset="1" stop-color="#D389B0"/>
</linearGradient>
</defs>
</svg>
