<svg width="32" height="32" viewBox="0 0 32 32" fill="none" xmlns="http://www.w3.org/2000/svg">
<g id="Social Icons" clip-path="url(#clip0_148_427)">
<path id="Vector" d="M16 31.9996C24.8363 31.9996 31.9995 24.8364 31.9995 16C31.9995 7.16374 24.8363 0.000488281 16 0.000488281C7.16367 0.000488281 0.000427246 7.16374 0.000427246 16C0.000427246 24.8364 7.16367 31.9996 16 31.9996Z" fill="url(#paint0_linear_148_427)"/>
<path id="Vector_2" fill-rule="evenodd" clip-rule="evenodd" d="M7.24276 15.8311C11.907 13.799 15.0171 12.4593 16.5733 11.812C21.0166 9.96395 21.9399 9.64292 22.5416 9.63232C22.674 9.62998 22.9699 9.66278 23.1616 9.81833C23.3235 9.94967 23.368 10.1271 23.3893 10.2516C23.4106 10.3761 23.4372 10.6598 23.4161 10.8815C23.1753 13.4114 22.1334 19.5508 21.6034 22.3843C21.3791 23.5833 20.9375 23.9853 20.51 24.0247C19.5809 24.1102 18.8753 23.4106 17.9754 22.8207C16.5673 21.8977 15.7717 21.323 14.4049 20.4223C12.8252 19.3813 13.8492 18.8092 14.7495 17.8742C14.9851 17.6295 19.0788 13.9059 19.158 13.5681C19.1679 13.5259 19.1771 13.3684 19.0836 13.2852C18.99 13.2021 18.852 13.2305 18.7523 13.2531C18.6111 13.2852 16.3615 14.7721 12.0036 17.7138C11.3651 18.1522 10.7867 18.3659 10.2685 18.3547C9.69727 18.3423 8.59838 18.0317 7.78147 17.7661C6.77949 17.4404 5.98314 17.2682 6.05249 16.7151C6.08861 16.427 6.48536 16.1323 7.24276 15.8311Z" fill="white"/>
</g>
<defs>
<linearGradient id="paint0_linear_148_427" x1="0.000427246" y1="16" x2="31.9995" y2="16" gradientUnits="userSpaceOnUse">
<stop stop-color="#FFB580"/>
<stop offset="1" stop-color="#D389B0"/>
</linearGradient>
<clipPath id="clip0_148_427">
<rect width="31.9991" height="31.9991" fill="white" transform="translate(0.000427246 0.000488281)"/>
</clipPath>
</defs>
</svg>
