<svg width="32" height="32" viewBox="0 0 32 32" fill="none" xmlns="http://www.w3.org/2000/svg">
<path d="M0.000488281 31.9996L2.24976 23.7825C0.861798 21.3772 0.132485 18.6506 0.133818 15.8547C0.137818 7.11363 7.25096 0.000488281 15.9907 0.000488281C20.2319 0.00182158 24.2132 1.65378 27.2077 4.65103C30.201 7.64828 31.8489 11.6322 31.8476 15.8694C31.8436 24.6118 24.7305 31.7249 15.9907 31.7249C13.3375 31.7236 10.7229 31.0583 8.40692 29.7943L0.000488281 31.9996ZM8.79625 26.9237C11.0309 28.2504 13.1641 29.045 15.9854 29.0464C23.2492 29.0464 29.1664 23.1345 29.1704 15.8667C29.173 8.58425 23.2838 2.68041 15.996 2.67775C8.72691 2.67775 2.81374 8.58959 2.81108 15.8561C2.80974 18.8226 3.67905 21.0439 5.13901 23.3678L3.80705 28.2317L8.79625 26.9237ZM23.9785 19.6386C23.8798 19.4733 23.6158 19.3746 23.2185 19.176C22.8225 18.9773 20.8746 18.0187 20.5106 17.8867C20.1479 17.7547 19.8839 17.688 19.6186 18.0853C19.3546 18.4813 18.5946 19.3746 18.364 19.6386C18.1333 19.9026 17.9013 19.9359 17.5053 19.7373C17.1094 19.5386 15.8321 19.1213 14.3188 17.7707C13.1415 16.72 12.3455 15.4227 12.1148 15.0254C11.8842 14.6294 12.0908 14.4148 12.2881 14.2174C12.4668 14.0401 12.6841 13.7548 12.8828 13.5228C13.0841 13.2935 13.1495 13.1281 13.2828 12.8628C13.4148 12.5988 13.3495 12.3668 13.2495 12.1682C13.1495 11.9708 12.3575 10.0202 12.0282 9.2269C11.7055 8.45492 11.3788 8.55892 11.1362 8.54692L10.3762 8.53359C10.1122 8.53359 9.68289 8.63225 9.32023 9.02957C8.95757 9.4269 7.9336 10.3842 7.9336 12.3348C7.9336 14.2854 9.35356 16.1694 9.55089 16.4334C9.74955 16.6974 12.3441 20.6999 16.3187 22.4159C17.264 22.8239 18.0027 23.0679 18.5773 23.2505C19.5266 23.5518 20.3906 23.5092 21.0732 23.4078C21.8346 23.2945 23.4172 22.4492 23.7478 21.5239C24.0785 20.5973 24.0785 19.8039 23.9785 19.6386Z" fill="url(#paint0_linear_124_1107)"/>
<defs>
<linearGradient id="paint0_linear_124_1107" x1="0.000488281" y1="16" x2="31.8476" y2="16" gradientUnits="userSpaceOnUse">
<stop stop-color="#FFB580"/>
<stop offset="1" stop-color="#D389B0"/>
</linearGradient>
</defs>
</svg>
