<svg width="65" height="22" viewBox="0 0 65 22" fill="none" xmlns="http://www.w3.org/2000/svg">
<path d="M10.9177 2.4C11.0377 2.50667 11.1444 2.67333 11.2377 2.9C10.9577 3.39333 10.7244 3.99333 10.5377 4.7L10.4577 5.04C10.1911 5.16 9.8644 5.22 9.47774 5.22C9.59774 4.68667 9.65774 4.28667 9.65774 4.02C9.65774 3.75333 9.55774 3.58 9.35773 3.5H4.49773C4.2444 5.68667 4.07107 7.38667 3.97773 8.6H8.45774C8.67107 8.28 8.83107 7.92 8.93773 7.52C9.03107 7.48 9.1644 7.46 9.33774 7.46L9.77773 7.54C9.49773 8.42 9.29107 9.54667 9.15773 10.92C9.05107 10.9733 8.91773 11 8.75773 11L8.41773 10.94C8.41773 10.4067 8.3644 9.96 8.25773 9.6H3.91773C3.79773 11.2267 3.69773 12.96 3.61773 14.8H8.79773C9.05107 14.4267 9.23773 14 9.35773 13.52L9.41773 13.26C9.83107 13.34 10.1111 13.48 10.2577 13.68L10.3377 13.8C10.0711 14.4667 9.89773 15.2 9.81773 16H2.31773L0.417734 16.14C0.417734 15.8333 0.484401 15.5467 0.617734 15.28C1.09773 15.1333 1.5244 14.9133 1.89773 14.62C2.2444 11.6467 2.5444 7.93333 2.79773 3.48L1.29773 3.12C1.29773 2.81333 1.3644 2.52667 1.49773 2.26C2.35107 2.35333 3.0444 2.4 3.57773 2.4H10.9177ZM21.3421 14.8C21.3421 15.1067 21.2754 15.3933 21.1421 15.66C20.2488 15.7667 19.4421 15.98 18.7221 16.3C18.2688 16.14 17.8954 15.78 17.6021 15.22C17.3088 14.6467 16.9354 13.6933 16.4821 12.36L13.5621 16.3C13.2421 16.3 12.9488 16.2467 12.6821 16.14C12.4288 16.0467 12.2488 15.9467 12.1421 15.84L12.0021 15.7C12.7354 15.1267 13.2488 14.6533 13.5421 14.28L16.0421 11.04L15.8221 10.38C15.7288 10.1 15.6554 9.88667 15.6021 9.74C15.5621 9.59333 15.5021 9.42 15.4221 9.22C15.3421 9.00667 15.2754 8.84 15.2221 8.72C15.1688 8.6 15.1021 8.47333 15.0221 8.34C14.8888 8.08667 14.7421 7.90667 14.5821 7.8H12.7621C12.7621 7.49333 12.8288 7.20667 12.9621 6.94C13.7221 6.83333 14.4621 6.62 15.1821 6.3C15.6088 6.47333 15.9688 6.82667 16.2621 7.36C16.5688 7.88 16.8888 8.67333 17.2221 9.74L19.8421 6.3C20.3754 6.3 20.8421 6.41333 21.2421 6.64L21.4421 6.74C20.6821 7.39333 20.1554 7.92667 19.8621 8.34L17.6421 11.08C18.3488 13.3467 18.9288 14.5867 19.3821 14.8H21.3421ZM27.0537 16.2C26.5603 16.2 26.0003 16.1067 25.3737 15.92C25.2137 17.5333 25.107 18.86 25.0537 19.9L26.6337 20.24C26.6337 20.5467 26.567 20.8333 26.4337 21.1C25.367 20.9667 24.6537 20.9 24.2937 20.9C23.667 20.9 22.9603 20.9467 22.1737 21.04L21.7937 21.1C21.7937 20.7933 21.8603 20.5067 21.9937 20.24C22.487 20.12 22.927 19.94 23.3137 19.7C23.647 17.66 23.887 15.8533 24.0337 14.28C24.1803 12.6933 24.3337 10.5333 24.4937 7.8H23.0337C23.0337 7.49333 23.1003 7.20667 23.2337 6.94C23.9937 6.83333 24.7337 6.62 25.4537 6.3C25.6403 6.3 25.807 6.38667 25.9537 6.56C26.1003 6.72 26.1737 6.93333 26.1737 7.2L25.7937 10.06L25.9937 10.18C26.487 8.98 26.987 8.05333 27.4937 7.4C28.0003 6.73333 28.667 6.4 29.4937 6.4C30.3203 6.4 31.0137 6.70667 31.5737 7.32C32.1337 7.92 32.4137 8.74 32.4137 9.78C32.4137 11.5 31.9003 13 30.8737 14.28C29.847 15.56 28.5737 16.2 27.0537 16.2ZM30.8937 10.34C30.8937 9.75333 30.7603 9.22667 30.4937 8.76C30.227 8.28 29.927 7.96 29.5937 7.8H28.6337C27.807 7.96 26.8537 9.39333 25.7737 12.1L25.4737 14.8H28.6937C29.2137 14.7067 29.707 14.1933 30.1737 13.26C30.6537 12.3133 30.8937 11.34 30.8937 10.34ZM34.2423 1.7C34.2423 1.39333 34.3089 1.10667 34.4423 0.84C35.2023 0.733333 35.9423 0.519999 36.6623 0.2C36.8489 0.2 37.0156 0.286666 37.1623 0.46C37.3089 0.619999 37.3823 0.833332 37.3823 1.1C37.1289 3.23333 36.7289 7.8 36.1823 14.8H37.7423C37.7423 15.1067 37.6756 15.3933 37.5423 15.66C36.6489 15.7667 35.8423 15.98 35.1223 16.3C34.9223 16.3 34.7489 16.2267 34.6023 16.08C34.4689 15.9333 34.4023 15.7067 34.4023 15.4C35.1089 9.46667 35.5689 4.9 35.7823 1.7H34.2423ZM42.2534 14.76L42.4134 14.8H44.3334C44.8934 14.5867 45.3867 14.0733 45.8134 13.26C46.24 12.4467 46.4534 11.6133 46.4534 10.76C46.4534 9.70667 46.2667 8.96 45.8934 8.52C45.56 8.13333 45.2667 7.90667 45.0134 7.84L44.8534 7.8H42.9334C42.3734 8.01333 41.88 8.52667 41.4534 9.34C41.0267 10.1533 40.8134 11.04 40.8134 12C40.8134 12.9467 40.9867 13.6267 41.3334 14.04C41.6934 14.4533 42 14.6933 42.2534 14.76ZM47.3734 12.88C47 13.7867 46.4067 14.5667 45.5934 15.22C44.7934 15.8733 43.84 16.2 42.7334 16.2C40.4534 16.2 39.3134 14.96 39.3134 12.48C39.3134 11.5467 39.5 10.6267 39.8734 9.72C40.26 8.81333 40.8534 8.03333 41.6534 7.38C42.4667 6.72667 43.4267 6.4 44.5334 6.4C46.8134 6.4 47.9534 7.64 47.9534 10.12C47.9534 11.0533 47.76 11.9733 47.3734 12.88ZM49.238 7.8C49.238 7.49333 49.3047 7.20667 49.438 6.94C50.198 6.83333 50.938 6.62 51.658 6.3C51.8447 6.3 52.0114 6.38667 52.158 6.56C52.3047 6.72 52.378 6.93333 52.378 7.2L52.038 9.6L52.238 9.72C52.5714 8.96 53.0847 8.22 53.778 7.5C54.4847 6.76667 55.1647 6.4 55.818 6.4C56.0714 6.4 56.298 6.45333 56.498 6.56C56.7114 6.66667 56.858 6.77333 56.938 6.88L57.058 7.04C56.7247 7.62667 56.4714 8.28 56.298 9L56.198 9.34C55.9314 9.46 55.6047 9.52 55.218 9.52C55.338 8.97333 55.398 8.62667 55.398 8.48C55.398 8.10667 55.2714 7.88 55.018 7.8C54.7247 7.8 54.2647 8.18 53.638 8.94C53.0114 9.68667 52.498 10.4933 52.098 11.36C51.9247 13.36 51.758 14.9067 51.598 16C50.9447 16.2 50.318 16.3 49.718 16.3C49.9314 15.4067 50.118 14.36 50.278 13.16C50.438 11.96 50.578 10.1733 50.698 7.8H49.238ZM64.5165 14.8C64.5165 15.1067 64.4498 15.3933 64.3165 15.66C62.9032 16.02 61.8898 16.2 61.2765 16.2C58.9832 16.2 57.8365 14.9533 57.8365 12.46C57.8365 11.54 58.0365 10.6267 58.4365 9.72C58.8365 8.8 59.4432 8.02 60.2565 7.38C61.0832 6.72667 62.0165 6.4 63.0565 6.4C63.7098 6.4 64.1898 6.56667 64.4965 6.9C64.8032 7.23333 64.9565 7.64 64.9565 8.12C64.9565 10.52 63.0765 11.76 59.3165 11.84C59.3165 13.6667 59.8632 14.6533 60.9565 14.8H64.5165ZM63.5565 8.62C63.5565 8.18 63.3698 7.90667 62.9965 7.8H61.1565C60.7165 7.97333 60.3365 8.36 60.0165 8.96C59.6965 9.54667 59.4832 10.2133 59.3765 10.96C60.9098 10.9067 61.9898 10.6867 62.6165 10.3C63.2432 9.9 63.5565 9.34 63.5565 8.62Z" fill="black"/>
</svg>
