<svg width="20" height="20" viewBox="0 0 20 20" fill="none" xmlns="http://www.w3.org/2000/svg">
<g id="Frame">
<path id="Vector" d="M9.16662 1.18545C9.41998 1.03917 9.70739 0.962158 9.99995 0.962158C10.2925 0.962158 10.5799 1.03917 10.8333 1.18545L17.2166 4.87128C17.47 5.01756 17.6804 5.22795 17.8266 5.48131C17.9729 5.73466 18.0499 6.02206 18.0499 6.31462V13.6855C18.0499 13.978 17.9729 14.2654 17.8266 14.5188C17.6804 14.7721 17.47 14.9825 17.2166 15.1288L10.8333 18.8146C10.5799 18.9609 10.2925 19.0379 9.99995 19.0379C9.70739 19.0379 9.41998 18.9609 9.16662 18.8146L2.78328 15.1288C2.52993 14.9825 2.31953 14.7721 2.17325 14.5188C2.02697 14.2654 1.94996 13.978 1.94995 13.6855V6.31462C1.94996 6.02206 2.02697 5.73466 2.17325 5.48131C2.31953 5.22795 2.52993 5.01756 2.78328 4.87128L9.16662 1.18545ZM9.99995 2.62878L3.61662 6.31462V13.6855L9.99995 17.3713L16.3833 13.6855V6.31462L9.99995 2.62878ZM9.99995 6.6667C10.884 6.6667 11.7319 7.01789 12.357 7.64301C12.9821 8.26813 13.3333 9.11598 13.3333 10C13.3333 10.8841 12.9821 11.7319 12.357 12.3571C11.7319 12.9822 10.884 13.3334 9.99995 13.3334C9.1159 13.3334 8.26805 12.9822 7.64293 12.3571C7.01781 11.7319 6.66662 10.8841 6.66662 10C6.66662 9.11598 7.01781 8.26813 7.64293 7.64301C8.26805 7.01789 9.1159 6.6667 9.99995 6.6667ZM9.99995 8.33337C9.78108 8.33337 9.56435 8.37648 9.36215 8.46023C9.15994 8.54399 8.9762 8.66676 8.82144 8.82152C8.66668 8.97629 8.54391 9.16002 8.46015 9.36223C8.37639 9.56444 8.33328 9.78116 8.33328 10C8.33328 10.2189 8.37639 10.4356 8.46015 10.6378C8.54391 10.84 8.66668 11.0238 8.82144 11.1785C8.9762 11.3333 9.15994 11.4561 9.36215 11.5398C9.56435 11.6236 9.78108 11.6667 9.99995 11.6667C10.442 11.6667 10.8659 11.4911 11.1785 11.1785C11.491 10.866 11.6666 10.4421 11.6666 10C11.6666 9.55801 11.491 9.13408 11.1785 8.82152C10.8659 8.50896 10.442 8.33337 9.99995 8.33337Z" fill="#222429"/>
</g>
</svg>
