<svg width="20" height="20" viewBox="0 0 20 20" fill="none" xmlns="http://www.w3.org/2000/svg">
<g id="Frame">
<path id="Vector" d="M7.61242 17.3108V14.7633C7.61242 14.1133 8.14325 13.5849 8.79825 13.5849H11.1941C11.5083 13.5849 11.8108 13.7099 12.0324 13.9299C12.2549 14.1508 12.3799 14.4508 12.3799 14.7633V17.3108C12.3783 17.5816 12.4849 17.8416 12.6766 18.0333C12.8683 18.2249 13.1299 18.3333 13.4016 18.3333H15.0366C15.7987 18.3355 16.5306 18.0358 17.0724 17.4999C17.3395 17.236 17.5516 16.9217 17.6965 16.5753C17.8414 16.2288 17.9162 15.8571 17.9166 15.4816V8.22245C17.9166 7.60995 17.6433 7.02995 17.1708 6.63745L11.6116 2.22911C11.1418 1.85448 10.5561 1.65549 9.95536 1.66644C9.35462 1.6774 8.77653 1.89761 8.32075 2.28911L2.88909 6.63745C2.64501 6.82477 2.44595 7.06435 2.30651 7.33861C2.16708 7.61287 2.09079 7.91487 2.08325 8.22245V15.4741C2.08325 17.0533 3.37242 18.3333 4.96325 18.3333H6.55992C7.12659 18.3333 7.58575 17.8799 7.58992 17.3183L7.61242 17.3108Z" fill="#333333"/>
</g>
</svg>
